<?xml version="1.0" encoding="utf-8"?>
<!-- Generator: Adobe Illustrator 22.1.0, SVG Export Plug-In . SVG Version: 6.00 Build 0)  -->
<svg version="1.1" id="Layer_1" xmlns="http://www.w3.org/2000/svg" xmlns:xlink="http://www.w3.org/1999/xlink" x="0px" y="0px"
	 viewBox="0 0 453.7 54.9" style="enable-background:new 0 0 453.7 54.9;" xml:space="preserve">
<style type="text/css">
	.st0{fill:#FFFFFF;}
	.st1{fill:#759DB8;}
</style>
<g>
	<g>
		<g>
			<path class="st0" d="M134,15.8c-0.1,0-0.3,0.1-0.3,0.1c-0.1,0.1-0.5,0.1-1,0.1h-0.2c-0.6,0-5.6,0-6.5,0c-0.5,0-0.9,0-1.4,0
				s-1,0-1.6,0c-0.2,0-0.6,0-0.6,0.4c0,0.3,0.3,0.3,0.6,0.4c0.1,0,0.2,0,0.3,0c0.1,0,0.2,0,0.3,0c0.7,0.2,1,0.5,1,1.4
				c0.1,0.8,0.1,1.6,0.1,5.7v4.7c0,2.8,0,4.4-0.1,5.5c-0.1,1.2-0.3,1.5-0.7,1.6c-0.2,0-0.4,0.1-0.7,0.1c-0.1,0-0.4,0-0.4,0.3
				c0,0.4,0.4,0.4,0.6,0.4c0.6,0,1.8-0.1,2.4-0.1h0.2c0,0,0.1,0,0.3,0c0.6,0,1.8,0.1,3,0.1c0.1,0,0.6,0,0.6-0.4
				c0-0.3-0.3-0.3-0.5-0.4h-0.3c-0.3,0-0.6,0-0.8-0.1c-0.5-0.1-0.9-0.4-0.9-1.7c-0.1-1.2-0.1-3.1-0.1-5.4v-2.3c0-0.1,0-0.1,0-0.1
				c1,0,3.4,0,4,0.1c1.2,0.2,1.3,1,1.4,1.6c0,0.3,0.1,0.6,0.4,0.6c0.3,0,0.3-0.3,0.4-0.6c0-0.1,0-0.3,0-0.5c0-0.4,0-0.8,0.1-1.4
				c0-0.5,0.1-0.9,0.2-1.2c0-0.2,0-0.3,0-0.3c0-0.3-0.2-0.4-0.3-0.4c-0.2,0-0.3,0.1-0.3,0.2c0,0,0,0.1-0.1,0.1
				c-0.3,0.4-0.6,0.4-2,0.4c-1.1,0-2.6,0-3.7,0l0,0c0,0,0,0,0-0.1v-7.3c0-0.1,0-0.1,0.1-0.1l4.1,0.1c0.6,0,1.1,0.2,1.5,0.5
				c0.3,0.3,0.4,0.9,0.4,1.2c0,0.2,0.1,0.5,0.4,0.5c0.2,0,0.4-0.3,0.4-0.7c0-0.2,0-0.4,0-0.6c0-0.4,0-0.8,0.1-1.3
				c0-0.1,0.1-0.3,0.1-0.4c0-0.2,0.1-0.3,0.1-0.4C134.4,15.9,134.2,15.8,134,15.8z"/>
			<path class="st0" d="M151.6,32.4c-0.3,0-0.4,0.4-0.4,0.5c-0.1,0.5-0.4,1.1-0.7,1.5c-0.6,0.7-1.6,0.7-3.1,0.7
				c-2.1,0-2.7-0.2-3.1-0.6c-0.5-0.5-0.5-2.5-0.5-6v-4.7c0-4.1,0-4.9,0.1-5.7c0.1-0.9,0.3-1.3,0.9-1.4c0.3-0.1,0.7-0.1,0.9-0.1
				s0.4-0.1,0.4-0.3c0-0.4-0.4-0.4-0.6-0.4c-0.6,0-1.7,0-2.4,0.1c-0.3,0-0.5,0-0.5,0s-0.2,0-0.4,0c-0.6,0-1.8-0.1-2.7-0.1
				c-0.2,0-0.6,0-0.6,0.4c0,0.2,0.2,0.3,0.4,0.3s0.7,0,0.9,0.1c0.7,0.2,1,0.5,1,1.4c0.1,0.8,0.1,1.6,0.1,5.7v4.7
				c0,2.5,0,4.7-0.1,5.8c-0.1,0.8-0.2,1.2-0.6,1.3c-0.3,0.1-0.6,0.1-0.8,0.1c-0.3,0-0.4,0.2-0.4,0.3c0,0.4,0.4,0.4,0.6,0.4
				c0.5,0,1,0,1.4,0c1.8-0.1,3.4,0,5,0c1.2,0,2.2,0.1,3.4,0.1c1.4,0,1.6-0.1,1.8-0.8c0.2-0.8,0.4-2.4,0.4-2.7
				C151.9,32.8,151.9,32.4,151.6,32.4z"/>
			<path class="st0" d="M167.2,32.5c-0.3,0-0.4,0.3-0.4,0.5c-0.2,1.2-0.5,1.6-1.2,1.8s-1.5,0.2-2.3,0.2c-1.1,0-1.8-0.1-2.1-0.2
				c-0.5-0.2-0.7-0.6-0.8-1.8c0-0.4,0-2.1,0-3.4c0-0.5,0-0.9,0-1.2V26c0.4,0,3.1,0.1,3.8,0.1c1,0.1,1.2,0.5,1.2,0.8
				c0.1,0.2,0.1,0.4,0.1,0.7c0,0.1,0,0.6,0.4,0.6c0.3,0,0.3-0.4,0.4-0.6c0-0.1,0-0.3,0-0.5c0-0.4,0-0.8,0.1-1.3
				c0-0.5,0.1-0.9,0.2-1.2c0-0.2,0-0.3,0-0.3c0-0.4-0.2-0.4-0.3-0.4c-0.2,0-0.3,0.1-0.4,0.3l0,0c-0.2,0.3-0.5,0.3-1.2,0.4
				c-0.4,0-2.5,0.1-4.2,0.1c0,0,0,0,0-0.1v-7.3c0-0.1,0-0.1,0-0.1c0.4,0,3.2,0,3.6,0.1c1.1,0.1,1.6,0.3,1.8,0.9
				c0.1,0.2,0.1,0.5,0.1,0.8c0,0.4,0.2,0.5,0.4,0.5c0.1,0,0.3-0.1,0.4-0.6c0-0.5,0.1-0.9,0.1-1.2v-0.4c0-0.5,0.1-0.7,0.2-0.9
				c0-0.1,0.1-0.2,0.1-0.3c0-0.4-0.2-0.4-0.3-0.4s-0.2,0-0.4,0.1c-0.1,0-0.4,0.1-1.2,0.1c-0.6,0-5.9,0-6.1,0c-1.7-0.1-2.4-0.1-3-0.1
				c-0.2,0-0.6,0-0.6,0.4c0,0.3,0.3,0.3,0.5,0.3c0.1,0,0.2,0,0.3,0c0.2,0,0.4,0,0.5,0.1c0.7,0.2,1,0.5,1,1.4
				c0.1,0.8,0.1,1.6,0.1,5.7v4.7c0,2.4,0,3.7-0.1,4.8c-0.1,2-0.4,2.2-0.8,2.3c-0.1,0-0.2,0-0.4,0.1c-0.1,0-0.1,0-0.2,0
				c-0.4,0.1-0.4,0.2-0.4,0.3c0,0.4,0.4,0.4,0.6,0.4c0.4,0,0.8,0,1.1,0s0.6,0,0.8,0c0.7,0,1.5,0,2.3,0c0.4,0,0.7,0,1,0s0.5,0,0.8,0
				c0.8,0,1.6,0.1,3.1,0.1c1,0,1.4,0,1.6-0.8c0.1-0.6,0.4-2.4,0.4-2.6C167.6,32.9,167.6,32.5,167.2,32.5z"/>
			<path class="st0" d="M197.1,35.7c-0.3,0-0.9,0-1.6-0.2c-1.1-0.3-1.2-1.8-1.3-2.7l-1.8-16.3c0-0.3-0.1-0.9-0.5-0.9
				c-0.3,0-0.5,0.3-0.6,0.5l-7.7,16.4l-8-16.4c-0.1-0.2-0.3-0.5-0.6-0.5c-0.2,0-0.4,0.3-0.5,0.7l-1.9,17.3v0.2
				c-0.1,1.1-0.2,1.7-0.9,1.9c-0.4,0.1-0.6,0.1-0.8,0.1c-0.3,0-0.4,0.1-0.4,0.3c0,0.4,0.4,0.4,0.6,0.4c0.5,0,1.1,0,1.6-0.1
				c0.3,0,0.5,0,0.6,0s0.2,0,0.5,0c0.6,0,1.4,0.1,2.1,0.1c0.1,0,0.6,0,0.6-0.4c0-0.1-0.1-0.3-0.4-0.3c-0.2,0-0.5,0-0.9-0.1
				s-0.6-0.2-0.6-0.8c0-0.4,0-0.8,0-1.1l1-12c0.8,1.8,3.1,6.8,3.3,7.2l0.1,0.2c1.6,3.2,2.6,5.2,3,6l0.1,0.1c0.5,1,0.6,1.2,0.9,1.2
				c0.3,0,0.4-0.2,0.8-1.1l6.5-13.8l1.2,13.3c0.1,0.5,0.1,0.7,0,0.8s-0.3,0.1-0.3,0.3c0,0.3,0.4,0.4,0.9,0.4c1,0.1,4,0.2,4.6,0.2
				c0.2,0,0.6,0,0.6-0.4C197.5,36,197.5,35.7,197.1,35.7z"/>
			<path class="st0" d="M207.1,35.7c-0.1,0-0.7-0.1-1.1-0.1c-0.7-0.1-0.8-0.5-0.9-1.3c-0.1-1.1-0.1-3.3-0.1-5.8v-4.7
				c0-4.1,0-4.9,0.1-5.7c0.1-0.9,0.3-1.3,0.8-1.4c0.3-0.1,0.5-0.1,0.6-0.1c0.2,0,0.4-0.1,0.4-0.3c0-0.4-0.4-0.4-0.6-0.4
				c-0.6,0-1.6,0-2.2,0.1c-0.2,0-0.4,0-0.4,0s-0.2,0-0.4,0c-0.6,0-1.6-0.1-2.3-0.1c-0.2,0-0.6,0-0.6,0.4c0,0.2,0.2,0.3,0.4,0.3
				s0.5,0,0.8,0.1c0.5,0.1,0.7,0.5,0.8,1.3s0.1,1.6,0.1,5.7v4.7c0,2.5,0,4.7-0.1,5.8c-0.1,0.8-0.3,1.3-0.7,1.4
				c-0.2,0-0.5,0.1-0.7,0.1c-0.4,0-0.5,0.2-0.5,0.3c0,0.4,0.4,0.4,0.6,0.4c0.6,0,1.6,0,2.2-0.1c0.2,0,0.4,0,0.4,0s0.1,0,0.3,0
				c0.6,0,1.9,0.1,3,0.1c0.5,0,0.6-0.2,0.6-0.4C207.6,36,207.6,35.7,207.1,35.7z"/>
			<path class="st0" d="M232.8,16c-0.7,0-1.4,0-1.8,0.1c-0.2,0-0.4,0-0.5,0s-0.3,0-0.6,0c-0.6,0-1.4-0.1-2.2-0.1
				c-0.2,0-0.7,0-0.7,0.4c0,0.2,0.1,0.4,0.5,0.4c0.2,0,0.6,0,1.1,0.1c0.7,0.2,0.9,0.6,0.9,2.4l0.3,13.1c-0.5-0.5-1.2-1.3-2-2.2
				c-1.2-1.3-2.7-2.9-4.1-4.4c-4.1-4.4-8.1-8.7-8.5-9.1c-0.1-0.1-0.1-0.2-0.2-0.3c-0.4-0.4-0.6-0.7-0.8-0.7c-0.4,0-0.5,0.5-0.5,1.5
				c0,2.4,0,3,0,3.8c0,1,0,2.4,0,7.5v3.9c0,2.4-0.1,3.1-0.7,3.2c-0.3,0.1-0.8,0.2-1,0.2c-0.3,0-0.4,0.2-0.4,0.3
				c0,0.4,0.4,0.4,0.6,0.4c0.8,0,1.6,0,2.1-0.1c0.2,0,0.4,0,0.4,0c0.1,0,0.2,0,0.4,0c0.5,0,1.3,0.1,2.4,0.1c0.2,0,0.6,0,0.6-0.4
				c0-0.2-0.1-0.3-0.4-0.3c-0.1,0-0.7,0-1.3-0.2s-0.9-0.7-0.9-2.9l-0.3-12.3c1.2,1.3,3.9,4.3,6.6,7.3c2.8,3.1,6.7,7,7,7.2
				c1.5,1.5,1.8,1.8,2.1,1.8c0.4,0,0.4-0.3,0.4-2.1l0.1-15.6c0-1.9,0.2-2.1,0.8-2.2c0.3-0.1,0.5-0.1,0.7-0.1c0.3,0,0.4-0.2,0.4-0.4
				C233.5,16,233.1,16,232.8,16z"/>
			<path class="st0" d="M257,26.1c-0.6,0-1.6,0-2.2,0.1c-0.2,0-0.4,0-0.4,0s-0.2,0-0.4,0c-0.6,0-1.8-0.1-2.7-0.1
				c-0.2,0-0.6,0-0.6,0.4c0,0.2,0.2,0.3,0.4,0.3s0.7,0,0.9,0.1c0.9,0.3,1.1,0.4,1.1,2.6V34c0,0.4-0.1,0.6-0.4,0.8
				c-0.6,0.4-2,0.5-3,0.5c-2.6,0-5-0.9-6.9-2.8c-1-0.9-2.8-3.6-2.8-7.3c0-2.9,1-5.4,2.6-6.6c1.9-1.5,3.8-1.7,5.6-1.7
				c3.3,0,5.5,1.1,6.1,2.1c0.4,0.7,0.5,1.5,0.5,1.7s0.1,0.5,0.4,0.5c0.4,0,0.4-0.4,0.4-0.7c0-1.9,0.1-2.9,0.2-3.3c0-0.2,0-0.3,0-0.4
				s-0.1-0.4-0.5-0.4c-0.7,0-1.6-0.1-2.1-0.3c-0.1,0-2.2-0.5-4.1-0.5c-2.1,0-4.7,0.2-7.2,1.7c-2.8,1.8-4.5,5.1-4.5,8.9
				c0,3.6,1.7,6.4,3.2,7.7c2.2,1.9,5.2,2.9,8.9,2.9c1.7,0,4-0.3,5.7-1.2c0.4-0.2,0.4-0.4,0.4-1.6v-3c0-1.1,0-1.9,0.1-2.8
				s0.3-1.3,0.8-1.4c0.3-0.1,0.5-0.1,0.6-0.1c0.2,0,0.4-0.1,0.4-0.3C257.6,26.1,257.2,26.1,257,26.1z"/>
		</g>
		<g>
			<path class="st0" d="M301.6,16c-0.7,0-1.4,0-1.8,0.1c-0.2,0-0.4,0-0.5,0s-0.3,0-0.6,0c-0.6,0-1.4-0.1-2.2-0.1
				c-0.2,0-0.7,0-0.7,0.4c0,0.2,0.1,0.4,0.5,0.4c0.2,0,0.6,0,1.1,0.1c0.7,0.2,0.9,0.6,0.9,2.4l0.3,13.1c-0.5-0.5-1.2-1.3-2-2.2
				c-1.2-1.3-2.7-2.9-4.1-4.4c-4.1-4.4-8.1-8.7-8.5-9.1c-0.1-0.1-0.1-0.2-0.2-0.3c-0.4-0.4-0.6-0.7-0.8-0.7c-0.4,0-0.5,0.5-0.5,1.5
				c0,2.4,0,3,0,3.8c0,1,0,2.4,0,7.5v3.9c0,2.4-0.1,3.1-0.7,3.2c-0.3,0.1-0.8,0.2-1,0.2c-0.3,0-0.4,0.2-0.4,0.3
				c0,0.4,0.4,0.4,0.6,0.4c0.8,0,1.6,0,2.1-0.1c0.2,0,0.4,0,0.4,0c0.1,0,0.2,0,0.4,0c0.5,0,1.3,0.1,2.4,0.1c0.2,0,0.6,0,0.6-0.4
				c0-0.2-0.1-0.3-0.4-0.3c-0.1,0-0.7,0-1.3-0.2c-0.6-0.2-0.9-0.7-0.9-2.9L284,20.4c1.2,1.3,3.9,4.3,6.6,7.3c2.8,3.1,6.7,7,7,7.2
				c1.5,1.5,1.8,1.8,2.1,1.8c0.4,0,0.4-0.3,0.4-2.1l0.1-15.6c0-1.9,0.2-2.1,0.8-2.2c0.3-0.1,0.5-0.1,0.7-0.1c0.3,0,0.4-0.2,0.4-0.4
				C302.2,16,301.8,16,301.6,16z"/>
			<path class="st0" d="M316.8,15.6c-7.8,0-10.7,6.5-10.7,10.6c0,2.6,0.9,5.2,2.5,7.1c1.9,2.3,4.7,3.5,8,3.5
				c6.3,0,10.8-4.7,10.8-11.1C327.4,19.7,323.2,15.6,316.8,15.6z M324.6,26.5c0,8.5-6,9-7.2,9c-4.9,0-8.4-4.1-8.4-10
				c0-5.3,2.9-8.6,7.6-8.6C320.4,16.9,324.6,19.9,324.6,26.5z"/>
			<path class="st0" d="M344.6,32.4c-0.3,0-0.4,0.4-0.4,0.5c-0.1,0.5-0.4,1.1-0.7,1.5c-0.6,0.7-1.6,0.7-3.1,0.7
				c-2.1,0-2.7-0.2-3.1-0.6c-0.5-0.5-0.5-2.5-0.5-6v-4.7c0-4.1,0-4.9,0.1-5.7c0.1-0.9,0.3-1.3,0.9-1.4c0.3-0.1,0.7-0.1,0.9-0.1
				c0.2,0,0.4-0.1,0.4-0.3c0-0.4-0.4-0.4-0.6-0.4c-0.6,0-1.7,0-2.4,0.1c-0.3,0-0.5,0-0.5,0s-0.2,0-0.4,0c-0.6,0-1.8-0.1-2.7-0.1
				c-0.2,0-0.6,0-0.6,0.4c0,0.2,0.2,0.3,0.4,0.3c0.2,0,0.7,0,0.9,0.1c0.7,0.2,1,0.5,1,1.4c0.1,0.8,0.1,1.6,0.1,5.7v4.7
				c0,2.5,0,4.7-0.1,5.8c-0.1,0.8-0.2,1.2-0.6,1.3c-0.3,0.1-0.6,0.1-0.8,0.1c-0.3,0-0.4,0.2-0.4,0.3c0,0.4,0.4,0.4,0.6,0.4
				c0.5,0,1,0,1.4,0c1.8-0.1,3.4,0,5,0c1.2,0,2.2,0.1,3.4,0.1c1.4,0,1.6-0.1,1.8-0.8c0.2-0.8,0.4-2.4,0.4-2.7
				C344.9,32.8,344.9,32.4,344.6,32.4z"/>
			<path class="st0" d="M359.7,32.5c-0.3,0-0.4,0.3-0.4,0.5c-0.2,1.2-0.5,1.6-1.2,1.8s-1.5,0.2-2.3,0.2c-1.1,0-1.8-0.1-2.1-0.2
				c-0.5-0.2-0.7-0.6-0.8-1.8c0-0.4,0-2.1,0-3.4c0-0.5,0-0.9,0-1.2V26c0.4,0,3.1,0.1,3.8,0.1c1,0.1,1.2,0.5,1.2,0.8
				c0.1,0.2,0.1,0.4,0.1,0.7c0,0.1,0,0.6,0.4,0.6c0.3,0,0.3-0.4,0.4-0.6c0-0.1,0-0.3,0-0.5c0-0.4,0-0.8,0.1-1.3
				c0-0.5,0.1-0.9,0.2-1.2c0-0.2,0-0.3,0-0.3c0-0.4-0.2-0.4-0.3-0.4c-0.2,0-0.3,0.1-0.4,0.3l0,0c-0.2,0.3-0.5,0.3-1.2,0.4
				c-0.4,0-2.5,0.1-4.2,0.1c0,0,0,0,0-0.1v-7.3c0-0.1,0-0.1,0-0.1c0.4,0,3.2,0,3.6,0.1c1.1,0.1,1.6,0.3,1.8,0.9
				c0.1,0.2,0.1,0.5,0.1,0.8c0,0.4,0.2,0.5,0.4,0.5c0.1,0,0.3-0.1,0.4-0.6c0-0.5,0.1-0.9,0.1-1.2v-0.4c0-0.5,0.1-0.7,0.2-0.9
				c0-0.1,0.1-0.2,0.1-0.3c0-0.4-0.2-0.4-0.3-0.4c-0.1,0-0.2,0-0.4,0.1c-0.1,0-0.4,0.1-1.2,0.1c-0.6,0-5.9,0-6.1,0
				c-1.7-0.1-2.4-0.1-3-0.1c-0.2,0-0.6,0-0.6,0.4c0,0.3,0.3,0.3,0.5,0.3c0.1,0,0.2,0,0.3,0c0.2,0,0.4,0,0.5,0.1c0.7,0.2,1,0.5,1,1.4
				c0.1,0.8,0.1,1.6,0.1,5.7v4.7c0,2.4,0,3.7-0.1,4.8c-0.1,2-0.4,2.2-0.8,2.3c-0.1,0-0.2,0-0.4,0.1c-0.1,0-0.1,0-0.2,0
				c-0.4,0.1-0.4,0.2-0.4,0.3c0,0.4,0.4,0.4,0.6,0.4c0.4,0,0.8,0,1.1,0c0.3,0,0.6,0,0.8,0c0.7,0,1.5,0,2.3,0c0.4,0,0.7,0,1,0
				s0.5,0,0.8,0c0.8,0,1.6,0.1,3.1,0.1c1,0,1.4,0,1.6-0.8c0.1-0.6,0.4-2.4,0.4-2.6C360,32.9,360,32.5,359.7,32.5z"/>
			<path class="st0" d="M385.1,16c-0.7,0-1.4,0-1.8,0.1c-0.2,0-0.4,0-0.5,0s-0.3,0-0.6,0c-0.6,0-1.4-0.1-2.2-0.1
				c-0.2,0-0.7,0-0.7,0.4c0,0.2,0.1,0.4,0.5,0.4c0.2,0,0.6,0,1.1,0.1c0.7,0.2,0.9,0.6,0.9,2.4l0.3,13.1c-0.5-0.5-1.2-1.3-2-2.2
				c-1.2-1.3-2.7-2.9-4.1-4.4c-4.1-4.4-8.1-8.7-8.5-9.1c-0.1-0.1-0.1-0.2-0.2-0.2c-0.4-0.4-0.6-0.7-0.8-0.7c-0.4,0-0.5,0.5-0.5,1.5
				c0,2.4,0,3,0,3.8c0,1,0,2.4,0,7.5v3.9c0,2.4-0.1,3.1-0.7,3.2c-0.3,0.1-0.8,0.2-1,0.2c-0.3,0-0.4,0.2-0.4,0.3
				c0,0.4,0.4,0.4,0.6,0.4c0.8,0,1.6,0,2.1-0.1c0.2,0,0.4,0,0.4,0c0.1,0,0.2,0,0.4,0c0.5,0,1.3,0.1,2.4,0.1c0.2,0,0.6,0,0.6-0.4
				c0-0.2-0.1-0.3-0.4-0.3c-0.1,0-0.7,0-1.3-0.2c-0.6-0.2-0.9-0.7-0.9-2.9l-0.3-12.3c1.2,1.3,3.9,4.3,6.6,7.3c2.8,3.1,6.7,7,7,7.2
				c1.5,1.5,1.8,1.8,2.1,1.8c0.4,0,0.4-0.3,0.4-2.1l0.1-15.6c0-1.9,0.2-2.1,0.8-2.2c0.3-0.1,0.5-0.1,0.7-0.1c0.3,0,0.4-0.2,0.4-0.4
				C385.7,16,385.3,16,385.1,16z"/>
		</g>
		<g>
			<path class="st0" d="M416.4,16c-0.6,0-1.6,0-2.2,0.1c-0.2,0-0.4,0-0.4,0s-0.2,0-0.4,0c-0.6,0-1.8-0.1-2.7-0.1
				c-0.5,0-0.6,0.2-0.6,0.4c0,0.2,0.1,0.4,0.5,0.4c0.2,0,0.6,0,0.8,0.1c0.7,0.2,1,0.5,1,1.4c0.1,0.8,0.1,1.6,0.1,5.7v7.7
				c0,6.7-0.8,8.2-2.5,9.9c-0.2,0.2-0.6,0.5-0.9,0.7l0,0c-0.2,0.2-0.4,0.3-0.4,0.5s0.2,0.3,0.4,0.3c0.1,0,0.2,0,0.3-0.1
				c0.3-0.1,0.7-0.4,1.1-0.7c2.1-1.5,3.4-2.8,3.9-4.1c0.8-1.9,0.8-3.6,0.8-7.9v-6.4c0-4.1,0-4.9,0.1-5.7c0.1-1,0.2-1.3,0.8-1.4h0.1
				c0.2,0,0.4,0,0.5,0c0.3,0,0.5-0.2,0.5-0.3C417,16,416.6,16,416.4,16z"/>
			<path class="st0" d="M433.4,32.5c-0.3,0-0.4,0.3-0.4,0.5c-0.2,1.2-0.5,1.6-1.2,1.8s-1.5,0.2-2.3,0.2c-1.1,0-1.8-0.1-2.1-0.2
				c-0.5-0.2-0.7-0.6-0.8-1.8c0-0.4,0-2.1,0-3.4c0-0.5,0-0.9,0-1.2V26c0.4,0,3.1,0.1,3.8,0.1c1,0.1,1.2,0.5,1.2,0.8
				c0.1,0.2,0.1,0.4,0.1,0.7c0,0.1,0,0.6,0.4,0.6c0.3,0,0.3-0.4,0.4-0.6c0-0.1,0-0.3,0-0.5c0-0.4,0-0.8,0.1-1.3
				c0-0.5,0.1-0.9,0.2-1.2c0-0.2,0-0.3,0-0.3c0-0.4-0.2-0.4-0.3-0.4c-0.2,0-0.3,0.1-0.4,0.3l0,0c-0.2,0.3-0.5,0.3-1.2,0.4
				c-0.4,0-2.4,0.1-4.2,0.1c0,0,0,0,0-0.1v-7.3c0-0.1,0-0.1,0-0.1c0.4,0,3.2,0,3.6,0.1c1.1,0.1,1.6,0.3,1.8,0.9
				c0.1,0.2,0.1,0.5,0.1,0.8c0,0.4,0.2,0.5,0.4,0.5c0.1,0,0.3-0.1,0.4-0.6c0-0.5,0.1-0.9,0.1-1.2v-0.4c0-0.5,0.1-0.7,0.2-0.9
				c0-0.1,0.1-0.2,0.1-0.3c0-0.4-0.2-0.4-0.3-0.4c-0.1,0-0.2,0-0.4,0.1c-0.1,0-0.4,0.1-1.2,0.1c-0.6,0-5.9,0-6.1,0
				c-1.7-0.1-2.4-0.1-3-0.1c-0.2,0-0.6,0-0.6,0.4c0,0.3,0.3,0.3,0.5,0.3c0.1,0,0.2,0,0.3,0c0.2,0,0.4,0,0.5,0.1c0.7,0.2,1,0.5,1,1.4
				c0.1,0.8,0.1,1.6,0.1,5.7v4.7c0,2.4,0,3.7-0.1,4.8c-0.1,2-0.4,2.2-0.8,2.3c-0.1,0-0.2,0-0.4,0.1h-0.2c-0.4,0.1-0.4,0.2-0.4,0.3
				c0,0.4,0.4,0.4,0.6,0.4c0.4,0,0.8,0,1.1,0c0.3,0,0.6,0,0.8,0c0.7,0,1.5,0,2.3,0c0.4,0,0.7,0,1,0s0.5,0,0.8,0
				c0.8,0,1.6,0.1,3.1,0.1c1,0,1.4,0,1.6-0.8c0.1-0.6,0.4-2.4,0.4-2.6C433.7,32.9,433.7,32.5,433.4,32.5z"/>
			<path class="st0" d="M453.2,31.8c-0.3,0-0.4,0.3-0.4,0.6c-0.1,0.4-0.3,1.1-0.5,1.4c-0.5,0.8-1.4,1.2-4.1,1.2h-6.9
				c4.4-6.7,8.1-12.4,11.8-18.1c0.1-0.2,0.1-0.3,0.1-0.4c0-0.4-0.4-0.4-0.7-0.4h-7.4h-0.4c-0.8,0-2.1,0-4.2-0.1
				c-0.4,0-0.6-0.1-0.8-0.1c-0.1,0-0.2-0.1-0.3-0.1c-0.3,0-0.4,0.4-0.4,0.6c-0.2,1-0.5,3.2-0.5,3.6c0,0.1,0,0.5,0.3,0.5
				c0.4,0,0.4-0.4,0.5-0.6c0.1-0.5,0.5-1.5,1.4-2c0.6-0.3,1.9-0.5,3.8-0.5h5.5c-3.1,5.1-6.6,10.3-9.9,15.3l-1.6,2.5
				c-0.3,0.5-0.4,0.7-0.4,0.8c0,0.4,0.4,0.4,0.6,0.4c2.4,0,4.7,0,6.9,0.1c2.2,0,4.4,0.1,6.6,0.1c0.7,0,0.8-0.1,1-0.8
				c0.1-0.6,0.5-2.2,0.5-3.1C453.6,32.2,453.6,31.8,453.2,31.8z"/>
		</g>
		<rect x="268.7" y="12.5" class="st1" width="1.1" height="27.2"/>
		<rect x="396.5" y="12.5" class="st1" width="1.1" height="27.2"/>
	</g>
	<rect class="st1" width="104.9" height="54.9"/>
	<g>
		<g>
			<path class="st0" d="M20,24.3c0-5.4,0-6.4-0.1-7.5c-0.1-1.2-0.3-1.7-1.5-2c-0.2,0-0.6,0-0.9-0.1c-0.3,0-0.6-0.1-0.6-0.2
				c0-0.2,0.2-0.3,0.6-0.3c1.3,0,2.7,0.1,3.9,0.1c0.7,0,7.7,0,8.5,0c0.8,0,1.4,0,1.7-0.2c0.1-0.1,0.2-0.1,0.3-0.1
				c0.1,0,0.2,0.1,0.2,0.3S32,15,32,15.4c-0.1,1-0.1,1.6-0.2,2.5c0,0.4-0.2,0.7-0.3,0.7c-0.2,0-0.2-0.1-0.2-0.4
				c0-0.5-0.2-1.3-0.7-1.7c-0.4-0.3-1-0.6-2-0.7c-1.8,0-3.5-0.1-5.3-0.1c-0.2,0-0.3,0.1-0.3,0.4v9.5c0,0.2,0,0.3,0.2,0.3
				c1.4,0,3.4,0,4.8,0c1.8,0,2.3-0.1,2.8-0.7c0.2-0.2,0.2-0.3,0.4-0.3s0.2,0.1,0.2,0.3c0,0.2-0.2,0.8-0.3,1.9C31,28.1,31,29,31,29.5
				c0,0.4-0.1,0.6-0.2,0.6c-0.2,0-0.2-0.2-0.3-0.6c-0.1-0.8-0.2-2-2-2.2c-0.9-0.1-4.6-0.1-5.2-0.1c-0.2,0-0.2,0.1-0.2,0.3v2.9
				c0,2.9,0,5.4,0.1,7s0.5,2.3,1.4,2.4c0.4,0.1,1,0.1,1.4,0.1c0.3,0,0.4,0.1,0.4,0.2c0,0.2-0.2,0.2-0.6,0.2c-1.9,0-4.1-0.1-4.2-0.1
				h-0.3c-0.7,0-2.2,0.1-3.1,0.1c-0.4,0-0.6-0.1-0.6-0.3c0-0.1,0.1-0.2,0.4-0.2s0.7-0.1,0.9-0.1c0.7-0.2,1-0.7,1.1-2.2
				c0-1.5,0-3.9,0-7.1V24.3z"/>
			<path class="st0" d="M43.6,30.2c0-12.5,0.1-8,0-14.7c0-1.3,0.1-1.7,0.4-1.7s0.9,0.8,1.2,1.1c0.5,0.6,5.7,6.1,11,11.8
				c3.4,3.7,7.2,7.9,8.3,9l-0.4-17.5c0-2.2-0.3-3-1.3-3.3c-0.6-0.1-1.2-0.2-1.5-0.2c-0.4,0-0.5-0.1-0.5-0.2c0-0.2,0.3-0.2,0.7-0.2
				c1.6,0,3.2,0.1,3.6,0.1s1.5-0.1,2.9-0.1c0.4,0,0.6,0,0.6,0.2c0,0.1-0.1,0.2-0.4,0.2s-0.5,0.1-0.9,0.1c-1,0.2-1.2,0.7-1.2,3.1
				L66,38.1c0,2.3-0.1,2.5-0.3,2.5c-0.3,0-0.7-0.4-2.5-2.2c-0.4-0.3-5.4-5.4-9-9.4c-4-4.3-7.9-8.7-9-9.9l0.4,16.5
				c0.1,2.8,0.4,3.7,1.3,4c0.7,0.2,1.4,0.2,1.7,0.2c0.2,0,0.3,0.1,0.3,0.2c0,0.2-0.2,0.3-0.6,0.3c-2,0-3.3-0.1-3.7-0.1
				c-0.3,0-1.8,0.1-3.3,0.1c-0.3,0-0.6,0-0.6-0.3c0-0.1,0.1-0.2,0.3-0.2c0.3,0,0.9,0,1.4-0.2c0.9-0.2,1-1.2,1-4.4v-5H43.6z"/>
			<path class="st0" d="M85.4,32.6c0,5.6,0,7.7-1,10.2c-0.7,1.7-2.2,3.3-5,5.3c-0.4,0.3-1,0.7-1.3,0.9c-0.1,0-0.1,0.1-0.2,0.1
				s-0.2-0.1-0.2-0.2c0-0.2,0.2-0.3,0.5-0.5c0.4-0.2,0.9-0.7,1.2-1c2.2-2.3,3.3-4.1,3.3-13v-10c0-5.4,0-6.4-0.1-7.5
				c-0.1-1.2-0.3-1.7-1.5-2c-0.3-0.1-0.8-0.1-1.1-0.1c-0.2,0-0.4-0.1-0.4-0.2s0.1-0.2,0.5-0.2c1.6,0,3.8,0.1,3.9,0.1
				c0.2,0,2.3-0.1,3.4-0.1c0.4,0,0.6,0.1,0.6,0.3c0,0.1-0.2,0.2-0.4,0.2c-0.2,0-0.5,0-0.8,0.1c-0.9,0.1-1.1,0.8-1.2,2
				c-0.1,1.1-0.1,2.1-0.1,7.5v8.1H85.4z"/>
		</g>
		<circle class="st0" cx="37" cy="26.9" r="2"/>
		<circle class="st0" cx="73.9" cy="26.9" r="2"/>
	</g>
</g>
</svg>
